<svg id="visual" viewBox="0 0 750 750" width="750" height="750" xmlns="http://www.w3.org/2000/svg" xmlns:xlink="http://www.w3.org/1999/xlink" version="1.1"><g transform="translate(439.5759114890872 382.5599649214336)"><path d="M161.9 -221.2C185 -173.6 161.8 -99 166.3 -35C170.9 29.1 203.2 82.5 199.2 139.1C195.2 195.6 154.9 255.2 104 264.5C53.1 273.8 -8.3 232.7 -76.1 208.3C-143.8 184 -217.8 176.2 -267.7 133.4C-317.7 90.6 -343.5 12.8 -319.8 -45.1C-296.1 -102.9 -222.9 -140.7 -161.4 -181.5C-99.8 -222.3 -49.9 -266.2 9.7 -277.8C69.4 -289.4 138.8 -268.8 161.9 -221.2" fill="#A084E8"></path></g></svg>