<svg xmlns="http://www.w3.org/2000/svg" version="1.1" xmlns:xlink="http://www.w3.org/1999/xlink" xmlns:svgjs="http://svgjs.dev/svgjs" width="1600" height="600" preserveAspectRatio="none" viewBox="0 0 1600 600"><g mask="url(&quot;#SvgjsMask1044&quot;)" fill="none"><g><path d="M1207.5 430.5L1207.5 598.5" stroke-width="3.5" stroke="rgba(132, 99, 201, 1)"></path><path d="M1204 430.5 a3.5 3.5 0 1 0 7 0 a3.5 3.5 0 1 0 -7 0zM1204 598.5 a3.5 3.5 0 1 0 7 0 a3.5 3.5 0 1 0 -7 0z" fill="rgba(132, 99, 201, 1)"></path><path d="M1018.5 430.5L1018.5 388.5L661.5 31.5" stroke-width="3.5" stroke="rgba(132, 99, 201, 1)"></path><path d="M1015 430.5 a3.5 3.5 0 1 0 7 0 a3.5 3.5 0 1 0 -7 0zM658 31.5 a3.5 3.5 0 1 0 7 0 a3.5 3.5 0 1 0 -7 0z" fill="rgba(132, 99, 201, 1)"></path><path d="M262.5 220.5L388.5 346.5L661.5 346.5" stroke-width="3.5" stroke="rgba(132, 99, 201, 1)"></path><path d="M259 220.5 a3.5 3.5 0 1 0 7 0 a3.5 3.5 0 1 0 -7 0zM658 346.5 a3.5 3.5 0 1 0 7 0 a3.5 3.5 0 1 0 -7 0z" fill="rgba(132, 99, 201, 1)"></path><path d="M31.5 220.5L115.5 220.5L304.5 31.5L346.5 31.5L430.5 115.5" stroke-width="3.5" stroke="rgba(132, 99, 201, 1)"></path><path d="M28 220.5 a3.5 3.5 0 1 0 7 0 a3.5 3.5 0 1 0 -7 0zM427 115.5 a3.5 3.5 0 1 0 7 0 a3.5 3.5 0 1 0 -7 0z" fill="rgba(132, 99, 201, 1)"></path><path d="M10.5 199.5L10.5 598.5" stroke-width="3.5" stroke="rgba(132, 99, 201, 1)"></path><path d="M7 199.5 a3.5 3.5 0 1 0 7 0 a3.5 3.5 0 1 0 -7 0zM7 598.5 a3.5 3.5 0 1 0 7 0 a3.5 3.5 0 1 0 -7 0z" fill="rgba(132, 99, 201, 1)"></path><path d="M850.5 94.5L934.5 178.5L934.5 220.5L1186.5 472.5L1186.5 493.5" stroke-width="3.5" stroke="rgba(132, 99, 201, 1)"></path><path d="M847 94.5 a3.5 3.5 0 1 0 7 0 a3.5 3.5 0 1 0 -7 0zM1183 493.5 a3.5 3.5 0 1 0 7 0 a3.5 3.5 0 1 0 -7 0z" fill="rgba(132, 99, 201, 1)"></path><path d="M472.5 577.5L451.5 577.5L430.5 598.5L73.5 598.5" stroke-width="3.5" stroke="rgba(132, 99, 201, 1)"></path><path d="M469 577.5 a3.5 3.5 0 1 0 7 0 a3.5 3.5 0 1 0 -7 0zM70 598.5 a3.5 3.5 0 1 0 7 0 a3.5 3.5 0 1 0 -7 0z" fill="rgba(132, 99, 201, 1)"></path><path d="M115.5 514.5L514.5 514.5" stroke-width="3.5" stroke="rgba(132, 99, 201, 1)"></path><path d="M112 514.5 a3.5 3.5 0 1 0 7 0 a3.5 3.5 0 1 0 -7 0zM511 514.5 a3.5 3.5 0 1 0 7 0 a3.5 3.5 0 1 0 -7 0z" fill="rgba(132, 99, 201, 1)"></path><path d="M304.5 136.5L262.5 94.5" stroke-width="3.5" stroke="rgba(132, 99, 201, 1)"></path><path d="M301 136.5 a3.5 3.5 0 1 0 7 0 a3.5 3.5 0 1 0 -7 0zM259 94.5 a3.5 3.5 0 1 0 7 0 a3.5 3.5 0 1 0 -7 0z" fill="rgba(132, 99, 201, 1)"></path><path d="M934.5 472.5L934.5 556.5L892.5 598.5L619.5 598.5" stroke-width="3.5" stroke="rgba(132, 99, 201, 1)"></path><path d="M931 472.5 a3.5 3.5 0 1 0 7 0 a3.5 3.5 0 1 0 -7 0zM616 598.5 a3.5 3.5 0 1 0 7 0 a3.5 3.5 0 1 0 -7 0z" fill="rgba(132, 99, 201, 1)"></path><path d="M976.5 598.5L913.5 598.5" stroke-width="3.5" stroke="rgba(132, 99, 201, 1)"></path><path d="M973 598.5 a3.5 3.5 0 1 0 7 0 a3.5 3.5 0 1 0 -7 0zM910 598.5 a3.5 3.5 0 1 0 7 0 a3.5 3.5 0 1 0 -7 0z" fill="rgba(132, 99, 201, 1)"></path><path d="M1186.5 52.5L1060.5 52.5L1018.5 10.5L997.5 10.5L892.5 115.5" stroke-width="3.5" stroke="rgba(132, 99, 201, 1)"></path><path d="M1183 52.5 a3.5 3.5 0 1 0 7 0 a3.5 3.5 0 1 0 -7 0zM889 115.5 a3.5 3.5 0 1 0 7 0 a3.5 3.5 0 1 0 -7 0z" fill="rgba(132, 99, 201, 1)"></path><path d="M955.5 136.5L1186.5 367.5L1186.5 451.5" stroke-width="3.5" stroke="rgba(132, 99, 201, 1)"></path><path d="M952 136.5 a3.5 3.5 0 1 0 7 0 a3.5 3.5 0 1 0 -7 0zM1183 451.5 a3.5 3.5 0 1 0 7 0 a3.5 3.5 0 1 0 -7 0z" fill="rgba(132, 99, 201, 1)"></path><path d="M283.5 430.5L199.5 430.5L178.5 451.5L31.5 451.5" stroke-width="3.5" stroke="rgba(132, 99, 201, 1)"></path><path d="M280 430.5 a3.5 3.5 0 1 0 7 0 a3.5 3.5 0 1 0 -7 0zM28 451.5 a3.5 3.5 0 1 0 7 0 a3.5 3.5 0 1 0 -7 0z" fill="rgba(132, 99, 201, 1)"></path><path d="M682.5 283.5L661.5 262.5L661.5 241.5L682.5 220.5L829.5 220.5L871.5 262.5L871.5 283.5L850.5 304.5L787.5 304.5L745.5 262.5" stroke-width="3.5" stroke="rgba(132, 99, 201, 1)"></path><path d="M679 283.5 a3.5 3.5 0 1 0 7 0 a3.5 3.5 0 1 0 -7 0zM742 262.5 a3.5 3.5 0 1 0 7 0 a3.5 3.5 0 1 0 -7 0z" fill="rgba(132, 99, 201, 1)"></path><path d="M346.5 430.5L409.5 367.5L430.5 367.5L556.5 493.5L661.5 493.5L703.5 535.5L745.5 535.5" stroke-width="3.5" stroke="rgba(132, 99, 201, 1)"></path><path d="M343 430.5 a3.5 3.5 0 1 0 7 0 a3.5 3.5 0 1 0 -7 0zM742 535.5 a3.5 3.5 0 1 0 7 0 a3.5 3.5 0 1 0 -7 0z" fill="rgba(132, 99, 201, 1)"></path><path d="M1144.5 514.5L1144.5 451.5L1123.5 430.5L1039.5 430.5L955.5 514.5L955.5 577.5" stroke-width="3.5" stroke="rgba(132, 99, 201, 1)"></path><path d="M1141 514.5 a3.5 3.5 0 1 0 7 0 a3.5 3.5 0 1 0 -7 0zM952 577.5 a3.5 3.5 0 1 0 7 0 a3.5 3.5 0 1 0 -7 0z" fill="rgba(132, 99, 201, 1)"></path><path d="M451.5 10.5L661.5 220.5" stroke-width="3.5" stroke="rgba(132, 99, 201, 1)"></path><path d="M448 10.5 a3.5 3.5 0 1 0 7 0 a3.5 3.5 0 1 0 -7 0zM658 220.5 a3.5 3.5 0 1 0 7 0 a3.5 3.5 0 1 0 -7 0z" fill="rgba(132, 99, 201, 1)"></path><path d="M94.5 157.5L115.5 178.5L136.5 178.5L283.5 31.5L283.5 10.5" stroke-width="3.5" stroke="rgba(132, 99, 201, 1)"></path><path d="M91 157.5 a3.5 3.5 0 1 0 7 0 a3.5 3.5 0 1 0 -7 0zM280 10.5 a3.5 3.5 0 1 0 7 0 a3.5 3.5 0 1 0 -7 0z" fill="rgba(132, 99, 201, 1)"></path><path d="M535.5 493.5L535.5 556.5L493.5 598.5L451.5 598.5" stroke-width="3.5" stroke="rgba(132, 99, 201, 1)"></path><path d="M532 493.5 a3.5 3.5 0 1 0 7 0 a3.5 3.5 0 1 0 -7 0zM448 598.5 a3.5 3.5 0 1 0 7 0 a3.5 3.5 0 1 0 -7 0z" fill="rgba(132, 99, 201, 1)"></path><path d="M1480.5 241.5L1228.5 493.5L1228.5 598.5" stroke-width="3.5" stroke="rgba(132, 99, 201, 1)"></path><path d="M1477 241.5 a3.5 3.5 0 1 0 7 0 a3.5 3.5 0 1 0 -7 0zM1225 598.5 a3.5 3.5 0 1 0 7 0 a3.5 3.5 0 1 0 -7 0z" fill="rgba(132, 99, 201, 1)"></path><path d="M514.5 52.5L472.5 10.5" stroke-width="3.5" stroke="rgba(132, 99, 201, 1)"></path><path d="M511 52.5 a3.5 3.5 0 1 0 7 0 a3.5 3.5 0 1 0 -7 0zM469 10.5 a3.5 3.5 0 1 0 7 0 a3.5 3.5 0 1 0 -7 0z" fill="rgba(132, 99, 201, 1)"></path><path d="M1543.5 283.5L1501.5 325.5L1480.5 325.5L1375.5 430.5L1312.5 430.5L1249.5 493.5L1249.5 598.5" stroke-width="3.5" stroke="rgba(132, 99, 201, 1)"></path><path d="M1540 283.5 a3.5 3.5 0 1 0 7 0 a3.5 3.5 0 1 0 -7 0zM1246 598.5 a3.5 3.5 0 1 0 7 0 a3.5 3.5 0 1 0 -7 0z" fill="rgba(132, 99, 201, 1)"></path><path d="M157.5 136.5L136.5 157.5L115.5 157.5L10.5 52.5L10.5 10.5" stroke-width="3.5" stroke="rgba(132, 99, 201, 1)"></path><path d="M154 136.5 a3.5 3.5 0 1 0 7 0 a3.5 3.5 0 1 0 -7 0zM7 10.5 a3.5 3.5 0 1 0 7 0 a3.5 3.5 0 1 0 -7 0z" fill="rgba(132, 99, 201, 1)"></path><path d="M619.5 94.5L556.5 94.5L535.5 73.5L535.5 10.5" stroke-width="3.5" stroke="rgba(132, 99, 201, 1)"></path><path d="M616 94.5 a3.5 3.5 0 1 0 7 0 a3.5 3.5 0 1 0 -7 0zM532 10.5 a3.5 3.5 0 1 0 7 0 a3.5 3.5 0 1 0 -7 0z" fill="rgba(132, 99, 201, 1)"></path><path d="M871.5 514.5L850.5 514.5L787.5 451.5L535.5 451.5L493.5 409.5L493.5 388.5" stroke-width="3.5" stroke="rgba(132, 99, 201, 1)"></path><path d="M868 514.5 a3.5 3.5 0 1 0 7 0 a3.5 3.5 0 1 0 -7 0zM490 388.5 a3.5 3.5 0 1 0 7 0 a3.5 3.5 0 1 0 -7 0z" fill="rgba(132, 99, 201, 1)"></path><path d="M640.5 73.5L640.5 10.5" stroke-width="3.5" stroke="rgba(132, 99, 201, 1)"></path><path d="M637 73.5 a3.5 3.5 0 1 0 7 0 a3.5 3.5 0 1 0 -7 0zM637 10.5 a3.5 3.5 0 1 0 7 0 a3.5 3.5 0 1 0 -7 0z" fill="rgba(132, 99, 201, 1)"></path><path d="M220.5 73.5L262.5 31.5L262.5 10.5" stroke-width="3.5" stroke="rgba(132, 99, 201, 1)"></path><path d="M217 73.5 a3.5 3.5 0 1 0 7 0 a3.5 3.5 0 1 0 -7 0zM259 10.5 a3.5 3.5 0 1 0 7 0 a3.5 3.5 0 1 0 -7 0z" fill="rgba(132, 99, 201, 1)"></path><path d="M136.5 262.5L220.5 178.5L241.5 178.5L388.5 325.5L535.5 325.5" stroke-width="3.5" stroke="rgba(132, 99, 201, 1)"></path><path d="M133 262.5 a3.5 3.5 0 1 0 7 0 a3.5 3.5 0 1 0 -7 0zM532 325.5 a3.5 3.5 0 1 0 7 0 a3.5 3.5 0 1 0 -7 0z" fill="rgba(132, 99, 201, 1)"></path><path d="M1123.5 367.5L1123.5 388.5L1165.5 430.5" stroke-width="3.5" stroke="rgba(132, 99, 201, 1)"></path><path d="M1120 367.5 a3.5 3.5 0 1 0 7 0 a3.5 3.5 0 1 0 -7 0zM1162 430.5 a3.5 3.5 0 1 0 7 0 a3.5 3.5 0 1 0 -7 0z" fill="rgba(132, 99, 201, 1)"></path><path d="M178.5 430.5L52.5 430.5L31.5 409.5L31.5 241.5" stroke-width="3.5" stroke="rgba(132, 99, 201, 1)"></path><path d="M175 430.5 a3.5 3.5 0 1 0 7 0 a3.5 3.5 0 1 0 -7 0zM28 241.5 a3.5 3.5 0 1 0 7 0 a3.5 3.5 0 1 0 -7 0z" fill="rgba(132, 99, 201, 1)"></path><path d="M535.5 388.5L556.5 367.5L745.5 367.5L787.5 325.5L871.5 325.5L934.5 388.5" stroke-width="3.5" stroke="rgba(132, 99, 201, 1)"></path><path d="M532 388.5 a3.5 3.5 0 1 0 7 0 a3.5 3.5 0 1 0 -7 0zM931 388.5 a3.5 3.5 0 1 0 7 0 a3.5 3.5 0 1 0 -7 0z" fill="rgba(132, 99, 201, 1)"></path><path d="M1207.5 94.5L1396.5 94.5L1480.5 10.5L1543.5 10.5L1606.5 73.5" stroke-width="3.5" stroke="rgba(132, 99, 201, 1)"></path><path d="M1204 94.5 a3.5 3.5 0 1 0 7 0 a3.5 3.5 0 1 0 -7 0zM1603 73.5 a3.5 3.5 0 1 0 7 0 a3.5 3.5 0 1 0 -7 0z" fill="rgba(132, 99, 201, 1)"></path><path d="M1333.5 178.5L1417.5 262.5L1417.5 283.5L1228.5 472.5" stroke-width="3.5" stroke="rgba(132, 99, 201, 1)"></path><path d="M1330 178.5 a3.5 3.5 0 1 0 7 0 a3.5 3.5 0 1 0 -7 0zM1225 472.5 a3.5 3.5 0 1 0 7 0 a3.5 3.5 0 1 0 -7 0z" fill="rgba(132, 99, 201, 1)"></path><path d="M976.5 283.5L934.5 283.5L661.5 10.5" stroke-width="3.5" stroke="rgba(132, 99, 201, 1)"></path><path d="M973 283.5 a3.5 3.5 0 1 0 7 0 a3.5 3.5 0 1 0 -7 0zM658 10.5 a3.5 3.5 0 1 0 7 0 a3.5 3.5 0 1 0 -7 0z" fill="rgba(132, 99, 201, 1)"></path><path d="M1480.5 31.5L1354.5 157.5L1354.5 178.5L1438.5 262.5" stroke-width="3.5" stroke="rgba(132, 99, 201, 1)"></path><path d="M1477 31.5 a3.5 3.5 0 1 0 7 0 a3.5 3.5 0 1 0 -7 0zM1435 262.5 a3.5 3.5 0 1 0 7 0 a3.5 3.5 0 1 0 -7 0z" fill="rgba(132, 99, 201, 1)"></path><path d="M850.5 472.5L913.5 535.5L913.5 556.5L892.5 577.5L787.5 577.5L766.5 556.5L598.5 556.5" stroke-width="3.5" stroke="rgba(132, 99, 201, 1)"></path><path d="M847 472.5 a3.5 3.5 0 1 0 7 0 a3.5 3.5 0 1 0 -7 0zM595 556.5 a3.5 3.5 0 1 0 7 0 a3.5 3.5 0 1 0 -7 0z" fill="rgba(132, 99, 201, 1)"></path><path d="M262.5 136.5L220.5 136.5L52.5 304.5L52.5 409.5" stroke-width="3.5" stroke="rgba(132, 99, 201, 1)"></path><path d="M259 136.5 a3.5 3.5 0 1 0 7 0 a3.5 3.5 0 1 0 -7 0zM49 409.5 a3.5 3.5 0 1 0 7 0 a3.5 3.5 0 1 0 -7 0z" fill="rgba(132, 99, 201, 1)"></path><path d="M1480.5 73.5L1480.5 178.5L1606.5 304.5L1606.5 472.5" stroke-width="3.5" stroke="rgba(132, 99, 201, 1)"></path><path d="M1477 73.5 a3.5 3.5 0 1 0 7 0 a3.5 3.5 0 1 0 -7 0zM1603 472.5 a3.5 3.5 0 1 0 7 0 a3.5 3.5 0 1 0 -7 0z" fill="rgba(132, 99, 201, 1)"></path><path d="M1564.5 304.5L1543.5 304.5L1333.5 514.5L1312.5 514.5L1270.5 556.5L1270.5 598.5" stroke-width="3.5" stroke="rgba(132, 99, 201, 1)"></path><path d="M1561 304.5 a3.5 3.5 0 1 0 7 0 a3.5 3.5 0 1 0 -7 0zM1267 598.5 a3.5 3.5 0 1 0 7 0 a3.5 3.5 0 1 0 -7 0z" fill="rgba(132, 99, 201, 1)"></path><path d="M1291.5 388.5L1291.5 115.5" stroke-width="3.5" stroke="rgba(132, 99, 201, 1)"></path><path d="M1288 388.5 a3.5 3.5 0 1 0 7 0 a3.5 3.5 0 1 0 -7 0zM1288 115.5 a3.5 3.5 0 1 0 7 0 a3.5 3.5 0 1 0 -7 0z" fill="rgba(132, 99, 201, 1)"></path><path d="M1312.5 157.5L1333.5 157.5L1375.5 115.5" stroke-width="3.5" stroke="rgba(132, 99, 201, 1)"></path><path d="M1309 157.5 a3.5 3.5 0 1 0 7 0 a3.5 3.5 0 1 0 -7 0zM1372 115.5 a3.5 3.5 0 1 0 7 0 a3.5 3.5 0 1 0 -7 0z" fill="rgba(132, 99, 201, 1)"></path><path d="M262.5 388.5L367.5 388.5L388.5 367.5" stroke-width="3.5" stroke="rgba(132, 99, 201, 1)"></path><path d="M259 388.5 a3.5 3.5 0 1 0 7 0 a3.5 3.5 0 1 0 -7 0zM385 367.5 a3.5 3.5 0 1 0 7 0 a3.5 3.5 0 1 0 -7 0z" fill="rgba(132, 99, 201, 1)"></path><path d="M1060.5 283.5L976.5 199.5L976.5 178.5L934.5 136.5L934.5 94.5L997.5 31.5L1018.5 31.5L1144.5 157.5" stroke-width="3.5" stroke="rgba(132, 99, 201, 1)"></path><path d="M1057 283.5 a3.5 3.5 0 1 0 7 0 a3.5 3.5 0 1 0 -7 0zM1141 157.5 a3.5 3.5 0 1 0 7 0 a3.5 3.5 0 1 0 -7 0z" fill="rgba(132, 99, 201, 1)"></path><path d="M73.5 241.5L73.5 262.5L52.5 283.5" stroke-width="3.5" stroke="rgba(132, 99, 201, 1)"></path><path d="M70 241.5 a3.5 3.5 0 1 0 7 0 a3.5 3.5 0 1 0 -7 0zM49 283.5 a3.5 3.5 0 1 0 7 0 a3.5 3.5 0 1 0 -7 0z" fill="rgba(132, 99, 201, 1)"></path><path d="M871.5 451.5L913.5 493.5L913.5 514.5" stroke-width="3.5" stroke="rgba(132, 99, 201, 1)"></path><path d="M868 451.5 a3.5 3.5 0 1 0 7 0 a3.5 3.5 0 1 0 -7 0zM910 514.5 a3.5 3.5 0 1 0 7 0 a3.5 3.5 0 1 0 -7 0z" fill="rgba(132, 99, 201, 1)"></path><path d="M388.5 115.5L325.5 52.5L304.5 52.5L283.5 73.5L283.5 94.5L325.5 136.5L325.5 241.5L388.5 304.5L451.5 304.5" stroke-width="3.5" stroke="rgba(132, 99, 201, 1)"></path><path d="M385 115.5 a3.5 3.5 0 1 0 7 0 a3.5 3.5 0 1 0 -7 0zM448 304.5 a3.5 3.5 0 1 0 7 0 a3.5 3.5 0 1 0 -7 0z" fill="rgba(132, 99, 201, 1)"></path><path d="M31.5 52.5L31.5 10.5" stroke-width="3.5" stroke="rgba(132, 99, 201, 1)"></path><path d="M28 52.5 a3.5 3.5 0 1 0 7 0 a3.5 3.5 0 1 0 -7 0zM28 10.5 a3.5 3.5 0 1 0 7 0 a3.5 3.5 0 1 0 -7 0z" fill="rgba(132, 99, 201, 1)"></path><path d="M178.5 325.5L178.5 241.5L220.5 199.5L241.5 199.5" stroke-width="3.5" stroke="rgba(132, 99, 201, 1)"></path><path d="M175 325.5 a3.5 3.5 0 1 0 7 0 a3.5 3.5 0 1 0 -7 0zM238 199.5 a3.5 3.5 0 1 0 7 0 a3.5 3.5 0 1 0 -7 0z" fill="rgba(132, 99, 201, 1)"></path><path d="M73.5 514.5L94.5 514.5L136.5 472.5L199.5 472.5L220.5 493.5L262.5 493.5L283.5 472.5L472.5 472.5" stroke-width="3.5" stroke="rgba(132, 99, 201, 1)"></path><path d="M70 514.5 a3.5 3.5 0 1 0 7 0 a3.5 3.5 0 1 0 -7 0zM469 472.5 a3.5 3.5 0 1 0 7 0 a3.5 3.5 0 1 0 -7 0z" fill="rgba(132, 99, 201, 1)"></path><path d="M1585.5 472.5L1606.5 493.5L1606.5 598.5" stroke-width="3.5" stroke="rgba(132, 99, 201, 1)"></path><path d="M1582 472.5 a3.5 3.5 0 1 0 7 0 a3.5 3.5 0 1 0 -7 0zM1603 598.5 a3.5 3.5 0 1 0 7 0 a3.5 3.5 0 1 0 -7 0z" fill="rgba(132, 99, 201, 1)"></path><path d="M619.5 262.5L367.5 10.5L304.5 10.5" stroke-width="3.5" stroke="rgba(132, 99, 201, 1)"></path><path d="M616 262.5 a3.5 3.5 0 1 0 7 0 a3.5 3.5 0 1 0 -7 0zM301 10.5 a3.5 3.5 0 1 0 7 0 a3.5 3.5 0 1 0 -7 0z" fill="rgba(132, 99, 201, 1)"></path><path d="M304.5 325.5L346.5 325.5" stroke-width="3.5" stroke="rgba(132, 99, 201, 1)"></path><path d="M301 325.5 a3.5 3.5 0 1 0 7 0 a3.5 3.5 0 1 0 -7 0zM343 325.5 a3.5 3.5 0 1 0 7 0 a3.5 3.5 0 1 0 -7 0z" fill="rgba(132, 99, 201, 1)"></path><path d="M1501.5 283.5L1501.5 220.5L1480.5 199.5L1396.5 199.5L1375.5 178.5L1375.5 157.5L1459.5 73.5" stroke-width="3.5" stroke="rgba(132, 99, 201, 1)"></path><path d="M1498 283.5 a3.5 3.5 0 1 0 7 0 a3.5 3.5 0 1 0 -7 0zM1456 73.5 a3.5 3.5 0 1 0 7 0 a3.5 3.5 0 1 0 -7 0z" fill="rgba(132, 99, 201, 1)"></path><path d="M892.5 220.5L913.5 199.5L913.5 178.5L745.5 10.5L682.5 10.5" stroke-width="3.5" stroke="rgba(132, 99, 201, 1)"></path><path d="M889 220.5 a3.5 3.5 0 1 0 7 0 a3.5 3.5 0 1 0 -7 0zM679 10.5 a3.5 3.5 0 1 0 7 0 a3.5 3.5 0 1 0 -7 0z" fill="rgba(132, 99, 201, 1)"></path><path d="M976.5 304.5L997.5 304.5L1102.5 409.5" stroke-width="3.5" stroke="rgba(132, 99, 201, 1)"></path><path d="M973 304.5 a3.5 3.5 0 1 0 7 0 a3.5 3.5 0 1 0 -7 0zM1099 409.5 a3.5 3.5 0 1 0 7 0 a3.5 3.5 0 1 0 -7 0z" fill="rgba(132, 99, 201, 1)"></path><path d="M1585.5 178.5L1564.5 157.5L1564.5 94.5L1585.5 73.5" stroke-width="3.5" stroke="rgba(132, 99, 201, 1)"></path><path d="M1582 178.5 a3.5 3.5 0 1 0 7 0 a3.5 3.5 0 1 0 -7 0zM1582 73.5 a3.5 3.5 0 1 0 7 0 a3.5 3.5 0 1 0 -7 0z" fill="rgba(132, 99, 201, 1)"></path><path d="M661.5 199.5L682.5 199.5L745.5 136.5" stroke-width="3.5" stroke="rgba(132, 99, 201, 1)"></path><path d="M658 199.5 a3.5 3.5 0 1 0 7 0 a3.5 3.5 0 1 0 -7 0zM742 136.5 a3.5 3.5 0 1 0 7 0 a3.5 3.5 0 1 0 -7 0z" fill="rgba(132, 99, 201, 1)"></path><path d="M472.5 283.5L493.5 304.5L619.5 304.5L640.5 283.5L640.5 220.5L598.5 178.5L556.5 178.5L472.5 94.5" stroke-width="3.5" stroke="rgba(132, 99, 201, 1)"></path><path d="M469 283.5 a3.5 3.5 0 1 0 7 0 a3.5 3.5 0 1 0 -7 0zM469 94.5 a3.5 3.5 0 1 0 7 0 a3.5 3.5 0 1 0 -7 0z" fill="rgba(132, 99, 201, 1)"></path><path d="M1270.5 178.5L1018.5 178.5L955.5 115.5L955.5 94.5L997.5 52.5L1018.5 52.5" stroke-width="3.5" stroke="rgba(132, 99, 201, 1)"></path><path d="M1267 178.5 a3.5 3.5 0 1 0 7 0 a3.5 3.5 0 1 0 -7 0zM1015 52.5 a3.5 3.5 0 1 0 7 0 a3.5 3.5 0 1 0 -7 0z" fill="rgba(132, 99, 201, 1)"></path><path d="M241.5 577.5L241.5 535.5" stroke-width="3.5" stroke="rgba(132, 99, 201, 1)"></path><path d="M238 577.5 a3.5 3.5 0 1 0 7 0 a3.5 3.5 0 1 0 -7 0zM238 535.5 a3.5 3.5 0 1 0 7 0 a3.5 3.5 0 1 0 -7 0z" fill="rgba(132, 99, 201, 1)"></path><path d="M808.5 115.5L787.5 115.5L703.5 31.5" stroke-width="3.5" stroke="rgba(132, 99, 201, 1)"></path><path d="M805 115.5 a3.5 3.5 0 1 0 7 0 a3.5 3.5 0 1 0 -7 0zM700 31.5 a3.5 3.5 0 1 0 7 0 a3.5 3.5 0 1 0 -7 0z" fill="rgba(132, 99, 201, 1)"></path><path d="M1417.5 514.5L1501.5 598.5L1543.5 598.5L1585.5 556.5L1585.5 493.5L1564.5 472.5L1564.5 409.5L1522.5 367.5L1522.5 346.5L1543.5 325.5" stroke-width="3.5" stroke="rgba(132, 99, 201, 1)"></path><path d="M1414 514.5 a3.5 3.5 0 1 0 7 0 a3.5 3.5 0 1 0 -7 0zM1540 325.5 a3.5 3.5 0 1 0 7 0 a3.5 3.5 0 1 0 -7 0z" fill="rgba(132, 99, 201, 1)"></path><path d="M1081.5 577.5L1102.5 598.5L1144.5 598.5L1186.5 556.5L1186.5 514.5L1165.5 493.5L1165.5 472.5" stroke-width="3.5" stroke="rgba(132, 99, 201, 1)"></path><path d="M1078 577.5 a3.5 3.5 0 1 0 7 0 a3.5 3.5 0 1 0 -7 0zM1162 472.5 a3.5 3.5 0 1 0 7 0 a3.5 3.5 0 1 0 -7 0z" fill="rgba(132, 99, 201, 1)"></path><path d="M976.5 10.5L892.5 94.5L871.5 94.5L787.5 10.5L766.5 10.5" stroke-width="3.5" stroke="rgba(132, 99, 201, 1)"></path><path d="M973 10.5 a3.5 3.5 0 1 0 7 0 a3.5 3.5 0 1 0 -7 0zM763 10.5 a3.5 3.5 0 1 0 7 0 a3.5 3.5 0 1 0 -7 0z" fill="rgba(132, 99, 201, 1)"></path><path d="M808.5 241.5L808.5 283.5" stroke-width="3.5" stroke="rgba(132, 99, 201, 1)"></path><path d="M805 241.5 a3.5 3.5 0 1 0 7 0 a3.5 3.5 0 1 0 -7 0zM805 283.5 a3.5 3.5 0 1 0 7 0 a3.5 3.5 0 1 0 -7 0z" fill="rgba(132, 99, 201, 1)"></path><path d="M1123.5 283.5L1207.5 199.5L1270.5 199.5" stroke-width="3.5" stroke="rgba(132, 99, 201, 1)"></path><path d="M1120 283.5 a3.5 3.5 0 1 0 7 0 a3.5 3.5 0 1 0 -7 0zM1267 199.5 a3.5 3.5 0 1 0 7 0 a3.5 3.5 0 1 0 -7 0z" fill="rgba(132, 99, 201, 1)"></path><path d="M1186.5 262.5L1144.5 304.5" stroke-width="3.5" stroke="rgba(132, 99, 201, 1)"></path><path d="M1183 262.5 a3.5 3.5 0 1 0 7 0 a3.5 3.5 0 1 0 -7 0zM1141 304.5 a3.5 3.5 0 1 0 7 0 a3.5 3.5 0 1 0 -7 0z" fill="rgba(132, 99, 201, 1)"></path><path d="M10.5 136.5L31.5 115.5L52.5 115.5L73.5 136.5L73.5 199.5" stroke-width="3.5" stroke="rgba(132, 99, 201, 1)"></path><path d="M7 136.5 a3.5 3.5 0 1 0 7 0 a3.5 3.5 0 1 0 -7 0zM70 199.5 a3.5 3.5 0 1 0 7 0 a3.5 3.5 0 1 0 -7 0z" fill="rgba(132, 99, 201, 1)"></path><path d="M913.5 388.5L892.5 388.5L829.5 451.5L829.5 472.5" stroke-width="3.5" stroke="rgba(132, 99, 201, 1)"></path><path d="M910 388.5 a3.5 3.5 0 1 0 7 0 a3.5 3.5 0 1 0 -7 0zM826 472.5 a3.5 3.5 0 1 0 7 0 a3.5 3.5 0 1 0 -7 0z" fill="rgba(132, 99, 201, 1)"></path><path d="M409.5 157.5L451.5 199.5L535.5 199.5L619.5 283.5" stroke-width="3.5" stroke="rgba(132, 99, 201, 1)"></path><path d="M406 157.5 a3.5 3.5 0 1 0 7 0 a3.5 3.5 0 1 0 -7 0zM616 283.5 a3.5 3.5 0 1 0 7 0 a3.5 3.5 0 1 0 -7 0z" fill="rgba(132, 99, 201, 1)"></path><path d="M661.5 304.5L661.5 325.5L682.5 346.5L745.5 346.5L766.5 325.5L766.5 304.5L703.5 241.5L682.5 241.5" stroke-width="3.5" stroke="rgba(132, 99, 201, 1)"></path><path d="M658 304.5 a3.5 3.5 0 1 0 7 0 a3.5 3.5 0 1 0 -7 0zM679 241.5 a3.5 3.5 0 1 0 7 0 a3.5 3.5 0 1 0 -7 0z" fill="rgba(132, 99, 201, 1)"></path><path d="M1417.5 367.5L1375.5 409.5L1333.5 409.5" stroke-width="3.5" stroke="rgba(132, 99, 201, 1)"></path><path d="M1414 367.5 a3.5 3.5 0 1 0 7 0 a3.5 3.5 0 1 0 -7 0zM1330 409.5 a3.5 3.5 0 1 0 7 0 a3.5 3.5 0 1 0 -7 0z" fill="rgba(132, 99, 201, 1)"></path><path d="M1606.5 199.5L1606.5 94.5" stroke-width="3.5" stroke="rgba(132, 99, 201, 1)"></path><path d="M1603 199.5 a3.5 3.5 0 1 0 7 0 a3.5 3.5 0 1 0 -7 0zM1603 94.5 a3.5 3.5 0 1 0 7 0 a3.5 3.5 0 1 0 -7 0z" fill="rgba(132, 99, 201, 1)"></path><path d="M1102.5 325.5L1102.5 367.5" stroke-width="3.5" stroke="rgba(132, 99, 201, 1)"></path><path d="M1099 325.5 a3.5 3.5 0 1 0 7 0 a3.5 3.5 0 1 0 -7 0zM1099 367.5 a3.5 3.5 0 1 0 7 0 a3.5 3.5 0 1 0 -7 0z" fill="rgba(132, 99, 201, 1)"></path><path d="M1417.5 472.5L1501.5 388.5L1501.5 367.5" stroke-width="3.5" stroke="rgba(132, 99, 201, 1)"></path><path d="M1414 472.5 a3.5 3.5 0 1 0 7 0 a3.5 3.5 0 1 0 -7 0zM1498 367.5 a3.5 3.5 0 1 0 7 0 a3.5 3.5 0 1 0 -7 0z" fill="rgba(132, 99, 201, 1)"></path><path d="M1144.5 241.5L1123.5 241.5L1102.5 262.5" stroke-width="3.5" stroke="rgba(132, 99, 201, 1)"></path><path d="M1141 241.5 a3.5 3.5 0 1 0 7 0 a3.5 3.5 0 1 0 -7 0zM1099 262.5 a3.5 3.5 0 1 0 7 0 a3.5 3.5 0 1 0 -7 0z" fill="rgba(132, 99, 201, 1)"></path><path d="M1564.5 514.5L1501.5 577.5" stroke-width="3.5" stroke="rgba(132, 99, 201, 1)"></path><path d="M1561 514.5 a3.5 3.5 0 1 0 7 0 a3.5 3.5 0 1 0 -7 0zM1498 577.5 a3.5 3.5 0 1 0 7 0 a3.5 3.5 0 1 0 -7 0z" fill="rgba(132, 99, 201, 1)"></path><path d="M1417.5 220.5L1438.5 241.5L1459.5 241.5L1480.5 220.5" stroke-width="3.5" stroke="rgba(132, 99, 201, 1)"></path><path d="M1414 220.5 a3.5 3.5 0 1 0 7 0 a3.5 3.5 0 1 0 -7 0zM1477 220.5 a3.5 3.5 0 1 0 7 0 a3.5 3.5 0 1 0 -7 0z" fill="rgba(132, 99, 201, 1)"></path><path d="M955.5 367.5L955.5 409.5L934.5 430.5L934.5 451.5L913.5 472.5" stroke-width="3.5" stroke="rgba(132, 99, 201, 1)"></path><path d="M952 367.5 a3.5 3.5 0 1 0 7 0 a3.5 3.5 0 1 0 -7 0zM910 472.5 a3.5 3.5 0 1 0 7 0 a3.5 3.5 0 1 0 -7 0z" fill="rgba(132, 99, 201, 1)"></path><path d="M913.5 325.5L913.5 304.5L892.5 283.5" stroke-width="3.5" stroke="rgba(132, 99, 201, 1)"></path><path d="M910 325.5 a3.5 3.5 0 1 0 7 0 a3.5 3.5 0 1 0 -7 0zM889 283.5 a3.5 3.5 0 1 0 7 0 a3.5 3.5 0 1 0 -7 0z" fill="rgba(132, 99, 201, 1)"></path><path d="M367.5 262.5L346.5 241.5L346.5 94.5L325.5 73.5L304.5 73.5" stroke-width="3.5" stroke="rgba(132, 99, 201, 1)"></path><path d="M364 262.5 a3.5 3.5 0 1 0 7 0 a3.5 3.5 0 1 0 -7 0zM301 73.5 a3.5 3.5 0 1 0 7 0 a3.5 3.5 0 1 0 -7 0z" fill="rgba(132, 99, 201, 1)"></path><path d="M1081.5 241.5L1102.5 241.5L1144.5 199.5L1186.5 199.5" stroke-width="3.5" stroke="rgba(132, 99, 201, 1)"></path><path d="M1078 241.5 a3.5 3.5 0 1 0 7 0 a3.5 3.5 0 1 0 -7 0zM1183 199.5 a3.5 3.5 0 1 0 7 0 a3.5 3.5 0 1 0 -7 0z" fill="rgba(132, 99, 201, 1)"></path><path d="M1312.5 220.5L1354.5 220.5L1396.5 262.5L1396.5 283.5L1354.5 325.5L1312.5 325.5" stroke-width="3.5" stroke="rgba(132, 99, 201, 1)"></path><path d="M1309 220.5 a3.5 3.5 0 1 0 7 0 a3.5 3.5 0 1 0 -7 0zM1309 325.5 a3.5 3.5 0 1 0 7 0 a3.5 3.5 0 1 0 -7 0z" fill="rgba(132, 99, 201, 1)"></path><path d="M682.5 472.5L766.5 472.5L787.5 493.5L787.5 556.5" stroke-width="3.5" stroke="rgba(132, 99, 201, 1)"></path><path d="M679 472.5 a3.5 3.5 0 1 0 7 0 a3.5 3.5 0 1 0 -7 0zM784 556.5 a3.5 3.5 0 1 0 7 0 a3.5 3.5 0 1 0 -7 0z" fill="rgba(132, 99, 201, 1)"></path><path d="M451.5 430.5L472.5 430.5L514.5 472.5" stroke-width="3.5" stroke="rgba(132, 99, 201, 1)"></path><path d="M448 430.5 a3.5 3.5 0 1 0 7 0 a3.5 3.5 0 1 0 -7 0zM511 472.5 a3.5 3.5 0 1 0 7 0 a3.5 3.5 0 1 0 -7 0z" fill="rgba(132, 99, 201, 1)"></path><path d="M94.5 493.5L31.5 493.5" stroke-width="3.5" stroke="rgba(132, 99, 201, 1)"></path><path d="M91 493.5 a3.5 3.5 0 1 0 7 0 a3.5 3.5 0 1 0 -7 0zM28 493.5 a3.5 3.5 0 1 0 7 0 a3.5 3.5 0 1 0 -7 0z" fill="rgba(132, 99, 201, 1)"></path><path d="M115.5 346.5L178.5 409.5L304.5 409.5L346.5 451.5L388.5 451.5L430.5 409.5L430.5 388.5" stroke-width="3.5" stroke="rgba(132, 99, 201, 1)"></path><path d="M112 346.5 a3.5 3.5 0 1 0 7 0 a3.5 3.5 0 1 0 -7 0zM427 388.5 a3.5 3.5 0 1 0 7 0 a3.5 3.5 0 1 0 -7 0z" fill="rgba(132, 99, 201, 1)"></path><path d="M1459.5 472.5L1459.5 451.5L1522.5 388.5" stroke-width="3.5" stroke="rgba(132, 99, 201, 1)"></path><path d="M1456 472.5 a3.5 3.5 0 1 0 7 0 a3.5 3.5 0 1 0 -7 0zM1519 388.5 a3.5 3.5 0 1 0 7 0 a3.5 3.5 0 1 0 -7 0z" fill="rgba(132, 99, 201, 1)"></path><path d="M997.5 325.5L997.5 346.5L1060.5 409.5L1081.5 409.5" stroke-width="3.5" stroke="rgba(132, 99, 201, 1)"></path><path d="M994 325.5 a3.5 3.5 0 1 0 7 0 a3.5 3.5 0 1 0 -7 0zM1078 409.5 a3.5 3.5 0 1 0 7 0 a3.5 3.5 0 1 0 -7 0z" fill="rgba(132, 99, 201, 1)"></path><path d="M31.5 598.5L52.5 598.5L115.5 535.5L220.5 535.5" stroke-width="3.5" stroke="rgba(132, 99, 201, 1)"></path><path d="M28 598.5 a3.5 3.5 0 1 0 7 0 a3.5 3.5 0 1 0 -7 0zM217 535.5 a3.5 3.5 0 1 0 7 0 a3.5 3.5 0 1 0 -7 0z" fill="rgba(132, 99, 201, 1)"></path><path d="M955.5 430.5L997.5 388.5" stroke-width="3.5" stroke="rgba(132, 99, 201, 1)"></path><path d="M952 430.5 a3.5 3.5 0 1 0 7 0 a3.5 3.5 0 1 0 -7 0zM994 388.5 a3.5 3.5 0 1 0 7 0 a3.5 3.5 0 1 0 -7 0z" fill="rgba(132, 99, 201, 1)"></path><path d="M577.5 577.5L556.5 556.5L556.5 514.5" stroke-width="3.5" stroke="rgba(132, 99, 201, 1)"></path><path d="M574 577.5 a3.5 3.5 0 1 0 7 0 a3.5 3.5 0 1 0 -7 0zM553 514.5 a3.5 3.5 0 1 0 7 0 a3.5 3.5 0 1 0 -7 0z" fill="rgba(132, 99, 201, 1)"></path><path d="M997.5 556.5L997.5 598.5" stroke-width="3.5" stroke="rgba(132, 99, 201, 1)"></path><path d="M994 556.5 a3.5 3.5 0 1 0 7 0 a3.5 3.5 0 1 0 -7 0zM994 598.5 a3.5 3.5 0 1 0 7 0 a3.5 3.5 0 1 0 -7 0z" fill="rgba(132, 99, 201, 1)"></path><path d="M661.5 178.5L598.5 115.5L577.5 115.5" stroke-width="3.5" stroke="rgba(132, 99, 201, 1)"></path><path d="M658 178.5 a3.5 3.5 0 1 0 7 0 a3.5 3.5 0 1 0 -7 0zM574 115.5 a3.5 3.5 0 1 0 7 0 a3.5 3.5 0 1 0 -7 0z" fill="rgba(132, 99, 201, 1)"></path><path d="M1606.5 241.5L1606.5 220.5L1501.5 115.5L1501.5 31.5" stroke-width="3.5" stroke="rgba(132, 99, 201, 1)"></path><path d="M1603 241.5 a3.5 3.5 0 1 0 7 0 a3.5 3.5 0 1 0 -7 0zM1498 31.5 a3.5 3.5 0 1 0 7 0 a3.5 3.5 0 1 0 -7 0z" fill="rgba(132, 99, 201, 1)"></path><path d="M1375.5 493.5L1564.5 493.5" stroke-width="3.5" stroke="rgba(132, 99, 201, 1)"></path><path d="M1372 493.5 a3.5 3.5 0 1 0 7 0 a3.5 3.5 0 1 0 -7 0zM1561 493.5 a3.5 3.5 0 1 0 7 0 a3.5 3.5 0 1 0 -7 0z" fill="rgba(132, 99, 201, 1)"></path><path d="M241.5 388.5L220.5 388.5L115.5 283.5L94.5 283.5" stroke-width="3.5" stroke="rgba(132, 99, 201, 1)"></path><path d="M238 388.5 a3.5 3.5 0 1 0 7 0 a3.5 3.5 0 1 0 -7 0zM91 283.5 a3.5 3.5 0 1 0 7 0 a3.5 3.5 0 1 0 -7 0z" fill="rgba(132, 99, 201, 1)"></path><path d="M1438.5 577.5L1417.5 598.5L1291.5 598.5" stroke-width="3.5" stroke="rgba(132, 99, 201, 1)"></path><path d="M1435 577.5 a3.5 3.5 0 1 0 7 0 a3.5 3.5 0 1 0 -7 0zM1288 598.5 a3.5 3.5 0 1 0 7 0 a3.5 3.5 0 1 0 -7 0z" fill="rgba(132, 99, 201, 1)"></path><path d="M1564.5 346.5L1564.5 325.5L1585.5 304.5" stroke-width="3.5" stroke="rgba(132, 99, 201, 1)"></path><path d="M1561 346.5 a3.5 3.5 0 1 0 7 0 a3.5 3.5 0 1 0 -7 0zM1582 304.5 a3.5 3.5 0 1 0 7 0 a3.5 3.5 0 1 0 -7 0z" fill="rgba(132, 99, 201, 1)"></path><path d="M1522.5 52.5L1522.5 115.5L1543.5 136.5" stroke-width="3.5" stroke="rgba(132, 99, 201, 1)"></path><path d="M1519 52.5 a3.5 3.5 0 1 0 7 0 a3.5 3.5 0 1 0 -7 0zM1540 136.5 a3.5 3.5 0 1 0 7 0 a3.5 3.5 0 1 0 -7 0z" fill="rgba(132, 99, 201, 1)"></path><path d="M1102.5 31.5L1060.5 31.5L1039.5 10.5" stroke-width="3.5" stroke="rgba(132, 99, 201, 1)"></path><path d="M1099 31.5 a3.5 3.5 0 1 0 7 0 a3.5 3.5 0 1 0 -7 0zM1036 10.5 a3.5 3.5 0 1 0 7 0 a3.5 3.5 0 1 0 -7 0z" fill="rgba(132, 99, 201, 1)"></path><path d="M1039.5 136.5L1060.5 157.5L1123.5 157.5" stroke-width="3.5" stroke="rgba(132, 99, 201, 1)"></path><path d="M1036 136.5 a3.5 3.5 0 1 0 7 0 a3.5 3.5 0 1 0 -7 0zM1120 157.5 a3.5 3.5 0 1 0 7 0 a3.5 3.5 0 1 0 -7 0z" fill="rgba(132, 99, 201, 1)"></path><path d="M1081.5 556.5L1039.5 598.5L1018.5 598.5" stroke-width="3.5" stroke="rgba(132, 99, 201, 1)"></path><path d="M1078 556.5 a3.5 3.5 0 1 0 7 0 a3.5 3.5 0 1 0 -7 0zM1015 598.5 a3.5 3.5 0 1 0 7 0 a3.5 3.5 0 1 0 -7 0z" fill="rgba(132, 99, 201, 1)"></path><path d="M430.5 451.5L472.5 451.5" stroke-width="3.5" stroke="rgba(132, 99, 201, 1)"></path><path d="M427 451.5 a3.5 3.5 0 1 0 7 0 a3.5 3.5 0 1 0 -7 0zM469 451.5 a3.5 3.5 0 1 0 7 0 a3.5 3.5 0 1 0 -7 0z" fill="rgba(132, 99, 201, 1)"></path><path d="M409.5 115.5L472.5 178.5L514.5 178.5" stroke-width="3.5" stroke="rgba(132, 99, 201, 1)"></path><path d="M406 115.5 a3.5 3.5 0 1 0 7 0 a3.5 3.5 0 1 0 -7 0zM511 178.5 a3.5 3.5 0 1 0 7 0 a3.5 3.5 0 1 0 -7 0z" fill="rgba(132, 99, 201, 1)"></path><path d="M430.5 10.5L388.5 10.5" stroke-width="3.5" stroke="rgba(132, 99, 201, 1)"></path><path d="M427 10.5 a3.5 3.5 0 1 0 7 0 a3.5 3.5 0 1 0 -7 0zM385 10.5 a3.5 3.5 0 1 0 7 0 a3.5 3.5 0 1 0 -7 0z" fill="rgba(132, 99, 201, 1)"></path><path d="M1291.5 10.5L1228.5 73.5L1081.5 73.5" stroke-width="3.5" stroke="rgba(132, 99, 201, 1)"></path><path d="M1288 10.5 a3.5 3.5 0 1 0 7 0 a3.5 3.5 0 1 0 -7 0zM1078 73.5 a3.5 3.5 0 1 0 7 0 a3.5 3.5 0 1 0 -7 0z" fill="rgba(132, 99, 201, 1)"></path><path d="M1102.5 136.5L1060.5 136.5L1039.5 115.5L976.5 115.5" stroke-width="3.5" stroke="rgba(132, 99, 201, 1)"></path><path d="M1099 136.5 a3.5 3.5 0 1 0 7 0 a3.5 3.5 0 1 0 -7 0zM973 115.5 a3.5 3.5 0 1 0 7 0 a3.5 3.5 0 1 0 -7 0z" fill="rgba(132, 99, 201, 1)"></path><path d="M829.5 388.5L871.5 388.5L892.5 367.5" stroke-width="3.5" stroke="rgba(132, 99, 201, 1)"></path><path d="M826 388.5 a3.5 3.5 0 1 0 7 0 a3.5 3.5 0 1 0 -7 0zM889 367.5 a3.5 3.5 0 1 0 7 0 a3.5 3.5 0 1 0 -7 0z" fill="rgba(132, 99, 201, 1)"></path><path d="M262.5 577.5L430.5 577.5L451.5 556.5L451.5 535.5" stroke-width="3.5" stroke="rgba(132, 99, 201, 1)"></path><path d="M259 577.5 a3.5 3.5 0 1 0 7 0 a3.5 3.5 0 1 0 -7 0zM448 535.5 a3.5 3.5 0 1 0 7 0 a3.5 3.5 0 1 0 -7 0z" fill="rgba(132, 99, 201, 1)"></path><path d="M1417.5 535.5L1396.5 514.5L1354.5 514.5L1291.5 577.5" stroke-width="3.5" stroke="rgba(132, 99, 201, 1)"></path><path d="M1414 535.5 a3.5 3.5 0 1 0 7 0 a3.5 3.5 0 1 0 -7 0zM1288 577.5 a3.5 3.5 0 1 0 7 0 a3.5 3.5 0 1 0 -7 0z" fill="rgba(132, 99, 201, 1)"></path><path d="M388.5 241.5L388.5 262.5L409.5 283.5L451.5 283.5L472.5 262.5L577.5 262.5L598.5 283.5" stroke-width="3.5" stroke="rgba(132, 99, 201, 1)"></path><path d="M385 241.5 a3.5 3.5 0 1 0 7 0 a3.5 3.5 0 1 0 -7 0zM595 283.5 a3.5 3.5 0 1 0 7 0 a3.5 3.5 0 1 0 -7 0z" fill="rgba(132, 99, 201, 1)"></path><path d="M115.5 10.5L199.5 94.5" stroke-width="3.5" stroke="rgba(132, 99, 201, 1)"></path><path d="M112 10.5 a3.5 3.5 0 1 0 7 0 a3.5 3.5 0 1 0 -7 0zM196 94.5 a3.5 3.5 0 1 0 7 0 a3.5 3.5 0 1 0 -7 0z" fill="rgba(132, 99, 201, 1)"></path><path d="M934.5 262.5L934.5 241.5L913.5 220.5" stroke-width="3.5" stroke="rgba(132, 99, 201, 1)"></path><path d="M931 262.5 a3.5 3.5 0 1 0 7 0 a3.5 3.5 0 1 0 -7 0zM910 220.5 a3.5 3.5 0 1 0 7 0 a3.5 3.5 0 1 0 -7 0z" fill="rgba(132, 99, 201, 1)"></path><path d="M1270.5 52.5L1312.5 10.5L1417.5 10.5" stroke-width="3.5" stroke="rgba(132, 99, 201, 1)"></path><path d="M1267 52.5 a3.5 3.5 0 1 0 7 0 a3.5 3.5 0 1 0 -7 0zM1414 10.5 a3.5 3.5 0 1 0 7 0 a3.5 3.5 0 1 0 -7 0z" fill="rgba(132, 99, 201, 1)"></path><path d="M493.5 220.5L472.5 241.5L409.5 241.5L388.5 220.5L367.5 220.5" stroke-width="3.5" stroke="rgba(132, 99, 201, 1)"></path><path d="M490 220.5 a3.5 3.5 0 1 0 7 0 a3.5 3.5 0 1 0 -7 0zM364 220.5 a3.5 3.5 0 1 0 7 0 a3.5 3.5 0 1 0 -7 0z" fill="rgba(132, 99, 201, 1)"></path><path d="M31.5 472.5L115.5 472.5" stroke-width="3.5" stroke="rgba(132, 99, 201, 1)"></path><path d="M28 472.5 a3.5 3.5 0 1 0 7 0 a3.5 3.5 0 1 0 -7 0zM112 472.5 a3.5 3.5 0 1 0 7 0 a3.5 3.5 0 1 0 -7 0z" fill="rgba(132, 99, 201, 1)"></path><path d="M178.5 10.5L241.5 10.5" stroke-width="3.5" stroke="rgba(132, 99, 201, 1)"></path><path d="M175 10.5 a3.5 3.5 0 1 0 7 0 a3.5 3.5 0 1 0 -7 0zM238 10.5 a3.5 3.5 0 1 0 7 0 a3.5 3.5 0 1 0 -7 0z" fill="rgba(132, 99, 201, 1)"></path><path d="M850.5 31.5L871.5 10.5L955.5 10.5" stroke-width="3.5" stroke="rgba(132, 99, 201, 1)"></path><path d="M847 31.5 a3.5 3.5 0 1 0 7 0 a3.5 3.5 0 1 0 -7 0zM952 10.5 a3.5 3.5 0 1 0 7 0 a3.5 3.5 0 1 0 -7 0z" fill="rgba(132, 99, 201, 1)"></path><path d="M682.5 325.5L724.5 283.5" stroke-width="3.5" stroke="rgba(132, 99, 201, 1)"></path><path d="M679 325.5 a3.5 3.5 0 1 0 7 0 a3.5 3.5 0 1 0 -7 0zM721 283.5 a3.5 3.5 0 1 0 7 0 a3.5 3.5 0 1 0 -7 0z" fill="rgba(132, 99, 201, 1)"></path><path d="M178.5 388.5L178.5 367.5L115.5 304.5L94.5 304.5L73.5 325.5L73.5 409.5" stroke-width="3.5" stroke="rgba(132, 99, 201, 1)"></path><path d="M175 388.5 a3.5 3.5 0 1 0 7 0 a3.5 3.5 0 1 0 -7 0zM70 409.5 a3.5 3.5 0 1 0 7 0 a3.5 3.5 0 1 0 -7 0z" fill="rgba(132, 99, 201, 1)"></path><path d="M703.5 388.5L598.5 388.5L556.5 430.5L535.5 430.5L514.5 409.5L514.5 367.5" stroke-width="3.5" stroke="rgba(132, 99, 201, 1)"></path><path d="M700 388.5 a3.5 3.5 0 1 0 7 0 a3.5 3.5 0 1 0 -7 0zM511 367.5 a3.5 3.5 0 1 0 7 0 a3.5 3.5 0 1 0 -7 0z" fill="rgba(132, 99, 201, 1)"></path><path d="M1186.5 325.5L1249.5 262.5L1270.5 262.5" stroke-width="3.5" stroke="rgba(132, 99, 201, 1)"></path><path d="M1183 325.5 a3.5 3.5 0 1 0 7 0 a3.5 3.5 0 1 0 -7 0zM1267 262.5 a3.5 3.5 0 1 0 7 0 a3.5 3.5 0 1 0 -7 0z" fill="rgba(132, 99, 201, 1)"></path><path d="M367.5 493.5L325.5 493.5" stroke-width="3.5" stroke="rgba(132, 99, 201, 1)"></path><path d="M364 493.5 a3.5 3.5 0 1 0 7 0 a3.5 3.5 0 1 0 -7 0zM322 493.5 a3.5 3.5 0 1 0 7 0 a3.5 3.5 0 1 0 -7 0z" fill="rgba(132, 99, 201, 1)"></path><path d="M1417.5 52.5L1396.5 73.5L1249.5 73.5" stroke-width="3.5" stroke="rgba(132, 99, 201, 1)"></path><path d="M1414 52.5 a3.5 3.5 0 1 0 7 0 a3.5 3.5 0 1 0 -7 0zM1246 73.5 a3.5 3.5 0 1 0 7 0 a3.5 3.5 0 1 0 -7 0z" fill="rgba(132, 99, 201, 1)"></path><path d="M745.5 430.5L724.5 409.5L661.5 409.5L640.5 430.5L577.5 430.5" stroke-width="3.5" stroke="rgba(132, 99, 201, 1)"></path><path d="M742 430.5 a3.5 3.5 0 1 0 7 0 a3.5 3.5 0 1 0 -7 0zM574 430.5 a3.5 3.5 0 1 0 7 0 a3.5 3.5 0 1 0 -7 0z" fill="rgba(132, 99, 201, 1)"></path><path d="M1039.5 577.5L976.5 514.5" stroke-width="3.5" stroke="rgba(132, 99, 201, 1)"></path><path d="M1036 577.5 a3.5 3.5 0 1 0 7 0 a3.5 3.5 0 1 0 -7 0zM973 514.5 a3.5 3.5 0 1 0 7 0 a3.5 3.5 0 1 0 -7 0z" fill="rgba(132, 99, 201, 1)"></path><path d="M262.5 178.5L283.5 157.5L283.5 136.5" stroke-width="3.5" stroke="rgba(132, 99, 201, 1)"></path><path d="M259 178.5 a3.5 3.5 0 1 0 7 0 a3.5 3.5 0 1 0 -7 0zM280 136.5 a3.5 3.5 0 1 0 7 0 a3.5 3.5 0 1 0 -7 0z" fill="rgba(132, 99, 201, 1)"></path><path d="M1207.5 346.5L1270.5 409.5" stroke-width="3.5" stroke="rgba(132, 99, 201, 1)"></path><path d="M1204 346.5 a3.5 3.5 0 1 0 7 0 a3.5 3.5 0 1 0 -7 0zM1267 409.5 a3.5 3.5 0 1 0 7 0 a3.5 3.5 0 1 0 -7 0z" fill="rgba(132, 99, 201, 1)"></path><path d="M556.5 325.5L640.5 325.5" stroke-width="3.5" stroke="rgba(132, 99, 201, 1)"></path><path d="M553 325.5 a3.5 3.5 0 1 0 7 0 a3.5 3.5 0 1 0 -7 0zM637 325.5 a3.5 3.5 0 1 0 7 0 a3.5 3.5 0 1 0 -7 0z" fill="rgba(132, 99, 201, 1)"></path><path d="M388.5 178.5L388.5 136.5L367.5 115.5" stroke-width="3.5" stroke="rgba(132, 99, 201, 1)"></path><path d="M385 178.5 a3.5 3.5 0 1 0 7 0 a3.5 3.5 0 1 0 -7 0zM364 115.5 a3.5 3.5 0 1 0 7 0 a3.5 3.5 0 1 0 -7 0z" fill="rgba(132, 99, 201, 1)"></path><path d="M745.5 178.5L766.5 199.5L808.5 199.5" stroke-width="3.5" stroke="rgba(132, 99, 201, 1)"></path><path d="M742 178.5 a3.5 3.5 0 1 0 7 0 a3.5 3.5 0 1 0 -7 0zM805 199.5 a3.5 3.5 0 1 0 7 0 a3.5 3.5 0 1 0 -7 0z" fill="rgba(132, 99, 201, 1)"></path><path d="M1123.5 514.5L1060.5 451.5L1039.5 451.5" stroke-width="3.5" stroke="rgba(132, 99, 201, 1)"></path><path d="M1120 514.5 a3.5 3.5 0 1 0 7 0 a3.5 3.5 0 1 0 -7 0zM1036 451.5 a3.5 3.5 0 1 0 7 0 a3.5 3.5 0 1 0 -7 0z" fill="rgba(132, 99, 201, 1)"></path><path d="M1228.5 409.5L1228.5 451.5" stroke-width="3.5" stroke="rgba(132, 99, 201, 1)"></path><path d="M1225 409.5 a3.5 3.5 0 1 0 7 0 a3.5 3.5 0 1 0 -7 0zM1225 451.5 a3.5 3.5 0 1 0 7 0 a3.5 3.5 0 1 0 -7 0z" fill="rgba(132, 99, 201, 1)"></path><path d="M1249.5 115.5L1207.5 157.5L1165.5 157.5L1144.5 136.5L1144.5 94.5" stroke-width="3.5" stroke="rgba(132, 99, 201, 1)"></path><path d="M1246 115.5 a3.5 3.5 0 1 0 7 0 a3.5 3.5 0 1 0 -7 0zM1141 94.5 a3.5 3.5 0 1 0 7 0 a3.5 3.5 0 1 0 -7 0z" fill="rgba(132, 99, 201, 1)"></path><path d="M1123.5 31.5L1207.5 31.5L1228.5 10.5L1270.5 10.5" stroke-width="3.5" stroke="rgba(132, 99, 201, 1)"></path><path d="M1120 31.5 a3.5 3.5 0 1 0 7 0 a3.5 3.5 0 1 0 -7 0zM1267 10.5 a3.5 3.5 0 1 0 7 0 a3.5 3.5 0 1 0 -7 0z" fill="rgba(132, 99, 201, 1)"></path><path d="M1123.5 451.5L1081.5 451.5" stroke-width="3.5" stroke="rgba(132, 99, 201, 1)"></path><path d="M1120 451.5 a3.5 3.5 0 1 0 7 0 a3.5 3.5 0 1 0 -7 0zM1078 451.5 a3.5 3.5 0 1 0 7 0 a3.5 3.5 0 1 0 -7 0z" fill="rgba(132, 99, 201, 1)"></path><path d="M1060.5 472.5L1039.5 472.5L997.5 514.5" stroke-width="3.5" stroke="rgba(132, 99, 201, 1)"></path><path d="M1057 472.5 a3.5 3.5 0 1 0 7 0 a3.5 3.5 0 1 0 -7 0zM994 514.5 a3.5 3.5 0 1 0 7 0 a3.5 3.5 0 1 0 -7 0z" fill="rgba(132, 99, 201, 1)"></path><path d="M1501.5 304.5L1438.5 304.5L1354.5 388.5" stroke-width="3.5" stroke="rgba(132, 99, 201, 1)"></path><path d="M1498 304.5 a3.5 3.5 0 1 0 7 0 a3.5 3.5 0 1 0 -7 0zM1351 388.5 a3.5 3.5 0 1 0 7 0 a3.5 3.5 0 1 0 -7 0z" fill="rgba(132, 99, 201, 1)"></path><path d="M157.5 409.5L94.5 409.5" stroke-width="3.5" stroke="rgba(132, 99, 201, 1)"></path><path d="M154 409.5 a3.5 3.5 0 1 0 7 0 a3.5 3.5 0 1 0 -7 0zM91 409.5 a3.5 3.5 0 1 0 7 0 a3.5 3.5 0 1 0 -7 0z" fill="rgba(132, 99, 201, 1)"></path><path d="M73.5 73.5L115.5 31.5" stroke-width="3.5" stroke="rgba(132, 99, 201, 1)"></path><path d="M70 73.5 a3.5 3.5 0 1 0 7 0 a3.5 3.5 0 1 0 -7 0zM112 31.5 a3.5 3.5 0 1 0 7 0 a3.5 3.5 0 1 0 -7 0z" fill="rgba(132, 99, 201, 1)"></path><path d="M220.5 283.5L199.5 262.5L199.5 241.5L220.5 220.5L241.5 220.5L283.5 262.5L283.5 283.5L220.5 346.5L199.5 346.5" stroke-width="3.5" stroke="rgba(132, 99, 201, 1)"></path><path d="M217 283.5 a3.5 3.5 0 1 0 7 0 a3.5 3.5 0 1 0 -7 0zM196 346.5 a3.5 3.5 0 1 0 7 0 a3.5 3.5 0 1 0 -7 0z" fill="rgba(132, 99, 201, 1)"></path><path d="M703.5 115.5L703.5 94.5L661.5 52.5" stroke-width="3.5" stroke="rgba(132, 99, 201, 1)"></path><path d="M700 115.5 a3.5 3.5 0 1 0 7 0 a3.5 3.5 0 1 0 -7 0zM658 52.5 a3.5 3.5 0 1 0 7 0 a3.5 3.5 0 1 0 -7 0z" fill="rgba(132, 99, 201, 1)"></path><path d="M451.5 31.5L493.5 73.5L493.5 94.5L556.5 157.5L577.5 157.5" stroke-width="3.5" stroke="rgba(132, 99, 201, 1)"></path><path d="M448 31.5 a3.5 3.5 0 1 0 7 0 a3.5 3.5 0 1 0 -7 0zM574 157.5 a3.5 3.5 0 1 0 7 0 a3.5 3.5 0 1 0 -7 0z" fill="rgba(132, 99, 201, 1)"></path><path d="M1543.5 178.5L1501.5 136.5" stroke-width="3.5" stroke="rgba(132, 99, 201, 1)"></path><path d="M1540 178.5 a3.5 3.5 0 1 0 7 0 a3.5 3.5 0 1 0 -7 0zM1498 136.5 a3.5 3.5 0 1 0 7 0 a3.5 3.5 0 1 0 -7 0z" fill="rgba(132, 99, 201, 1)"></path><path d="M94.5 115.5L115.5 136.5L136.5 136.5L178.5 94.5" stroke-width="3.5" stroke="rgba(132, 99, 201, 1)"></path><path d="M91 115.5 a3.5 3.5 0 1 0 7 0 a3.5 3.5 0 1 0 -7 0zM175 94.5 a3.5 3.5 0 1 0 7 0 a3.5 3.5 0 1 0 -7 0z" fill="rgba(132, 99, 201, 1)"></path><path d="M1333.5 472.5L1312.5 493.5L1270.5 493.5" stroke-width="3.5" stroke="rgba(132, 99, 201, 1)"></path><path d="M1330 472.5 a3.5 3.5 0 1 0 7 0 a3.5 3.5 0 1 0 -7 0zM1267 493.5 a3.5 3.5 0 1 0 7 0 a3.5 3.5 0 1 0 -7 0z" fill="rgba(132, 99, 201, 1)"></path><path d="M1165.5 94.5L1165.5 136.5" stroke-width="3.5" stroke="rgba(132, 99, 201, 1)"></path><path d="M1162 94.5 a3.5 3.5 0 1 0 7 0 a3.5 3.5 0 1 0 -7 0zM1162 136.5 a3.5 3.5 0 1 0 7 0 a3.5 3.5 0 1 0 -7 0z" fill="rgba(132, 99, 201, 1)"></path><path d="M955.5 451.5L976.5 430.5L997.5 430.5" stroke-width="3.5" stroke="rgba(132, 99, 201, 1)"></path><path d="M952 451.5 a3.5 3.5 0 1 0 7 0 a3.5 3.5 0 1 0 -7 0zM994 430.5 a3.5 3.5 0 1 0 7 0 a3.5 3.5 0 1 0 -7 0z" fill="rgba(132, 99, 201, 1)"></path><path d="M262.5 325.5L241.5 346.5L241.5 367.5" stroke-width="3.5" stroke="rgba(132, 99, 201, 1)"></path><path d="M259 325.5 a3.5 3.5 0 1 0 7 0 a3.5 3.5 0 1 0 -7 0zM238 367.5 a3.5 3.5 0 1 0 7 0 a3.5 3.5 0 1 0 -7 0z" fill="rgba(132, 99, 201, 1)"></path><path d="M1039.5 199.5L1060.5 220.5L1102.5 220.5" stroke-width="3.5" stroke="rgba(132, 99, 201, 1)"></path><path d="M1036 199.5 a3.5 3.5 0 1 0 7 0 a3.5 3.5 0 1 0 -7 0zM1099 220.5 a3.5 3.5 0 1 0 7 0 a3.5 3.5 0 1 0 -7 0z" fill="rgba(132, 99, 201, 1)"></path><path d="M871.5 157.5L829.5 115.5" stroke-width="3.5" stroke="rgba(132, 99, 201, 1)"></path><path d="M868 157.5 a3.5 3.5 0 1 0 7 0 a3.5 3.5 0 1 0 -7 0zM826 115.5 a3.5 3.5 0 1 0 7 0 a3.5 3.5 0 1 0 -7 0z" fill="rgba(132, 99, 201, 1)"></path><path d="M766.5 493.5L745.5 493.5L724.5 514.5L703.5 514.5" stroke-width="3.5" stroke="rgba(132, 99, 201, 1)"></path><path d="M763 493.5 a3.5 3.5 0 1 0 7 0 a3.5 3.5 0 1 0 -7 0zM700 514.5 a3.5 3.5 0 1 0 7 0 a3.5 3.5 0 1 0 -7 0z" fill="rgba(132, 99, 201, 1)"></path><path d="M913.5 409.5L892.5 409.5L871.5 430.5" stroke-width="3.5" stroke="rgba(132, 99, 201, 1)"></path><path d="M910 409.5 a3.5 3.5 0 1 0 7 0 a3.5 3.5 0 1 0 -7 0zM868 430.5 a3.5 3.5 0 1 0 7 0 a3.5 3.5 0 1 0 -7 0z" fill="rgba(132, 99, 201, 1)"></path><path d="M1564.5 199.5L1522.5 199.5L1501.5 178.5L1501.5 157.5" stroke-width="3.5" stroke="rgba(132, 99, 201, 1)"></path><path d="M1561 199.5 a3.5 3.5 0 1 0 7 0 a3.5 3.5 0 1 0 -7 0zM1498 157.5 a3.5 3.5 0 1 0 7 0 a3.5 3.5 0 1 0 -7 0z" fill="rgba(132, 99, 201, 1)"></path><path d="M745.5 199.5L703.5 199.5" stroke-width="3.5" stroke="rgba(132, 99, 201, 1)"></path><path d="M742 199.5 a3.5 3.5 0 1 0 7 0 a3.5 3.5 0 1 0 -7 0zM700 199.5 a3.5 3.5 0 1 0 7 0 a3.5 3.5 0 1 0 -7 0z" fill="rgba(132, 99, 201, 1)"></path><path d="M1207.5 241.5L1228.5 220.5L1249.5 220.5" stroke-width="3.5" stroke="rgba(132, 99, 201, 1)"></path><path d="M1204 241.5 a3.5 3.5 0 1 0 7 0 a3.5 3.5 0 1 0 -7 0zM1246 220.5 a3.5 3.5 0 1 0 7 0 a3.5 3.5 0 1 0 -7 0z" fill="rgba(132, 99, 201, 1)"></path><path d="M808.5 430.5L829.5 430.5L850.5 409.5" stroke-width="3.5" stroke="rgba(132, 99, 201, 1)"></path><path d="M805 430.5 a3.5 3.5 0 1 0 7 0 a3.5 3.5 0 1 0 -7 0zM847 409.5 a3.5 3.5 0 1 0 7 0 a3.5 3.5 0 1 0 -7 0z" fill="rgba(132, 99, 201, 1)"></path><path d="M829.5 514.5L871.5 556.5L892.5 556.5" stroke-width="3.5" stroke="rgba(132, 99, 201, 1)"></path><path d="M826 514.5 a3.5 3.5 0 1 0 7 0 a3.5 3.5 0 1 0 -7 0zM889 556.5 a3.5 3.5 0 1 0 7 0 a3.5 3.5 0 1 0 -7 0z" fill="rgba(132, 99, 201, 1)"></path><path d="M136.5 94.5L73.5 94.5" stroke-width="3.5" stroke="rgba(132, 99, 201, 1)"></path><path d="M133 94.5 a3.5 3.5 0 1 0 7 0 a3.5 3.5 0 1 0 -7 0zM70 94.5 a3.5 3.5 0 1 0 7 0 a3.5 3.5 0 1 0 -7 0z" fill="rgba(132, 99, 201, 1)"></path><path d="M619.5 115.5L640.5 136.5L682.5 136.5L703.5 157.5" stroke-width="3.5" stroke="rgba(132, 99, 201, 1)"></path><path d="M616 115.5 a3.5 3.5 0 1 0 7 0 a3.5 3.5 0 1 0 -7 0zM700 157.5 a3.5 3.5 0 1 0 7 0 a3.5 3.5 0 1 0 -7 0z" fill="rgba(132, 99, 201, 1)"></path><path d="M94.5 73.5L115.5 52.5L136.5 52.5L157.5 73.5L157.5 94.5" stroke-width="3.5" stroke="rgba(132, 99, 201, 1)"></path><path d="M91 73.5 a3.5 3.5 0 1 0 7 0 a3.5 3.5 0 1 0 -7 0zM154 94.5 a3.5 3.5 0 1 0 7 0 a3.5 3.5 0 1 0 -7 0z" fill="rgba(132, 99, 201, 1)"></path><path d="M1459.5 136.5L1459.5 94.5" stroke-width="3.5" stroke="rgba(132, 99, 201, 1)"></path><path d="M1456 136.5 a3.5 3.5 0 1 0 7 0 a3.5 3.5 0 1 0 -7 0zM1456 94.5 a3.5 3.5 0 1 0 7 0 a3.5 3.5 0 1 0 -7 0z" fill="rgba(132, 99, 201, 1)"></path><path d="M52.5 10.5L52.5 73.5" stroke-width="3.5" stroke="rgba(132, 99, 201, 1)"></path><path d="M49 10.5 a3.5 3.5 0 1 0 7 0 a3.5 3.5 0 1 0 -7 0zM49 73.5 a3.5 3.5 0 1 0 7 0 a3.5 3.5 0 1 0 -7 0z" fill="rgba(132, 99, 201, 1)"></path><path d="M598.5 10.5L577.5 31.5L577.5 73.5" stroke-width="3.5" stroke="rgba(132, 99, 201, 1)"></path><path d="M595 10.5 a3.5 3.5 0 1 0 7 0 a3.5 3.5 0 1 0 -7 0zM574 73.5 a3.5 3.5 0 1 0 7 0 a3.5 3.5 0 1 0 -7 0z" fill="rgba(132, 99, 201, 1)"></path><path d="M808.5 556.5L850.5 556.5" stroke-width="3.5" stroke="rgba(132, 99, 201, 1)"></path><path d="M805 556.5 a3.5 3.5 0 1 0 7 0 a3.5 3.5 0 1 0 -7 0zM847 556.5 a3.5 3.5 0 1 0 7 0 a3.5 3.5 0 1 0 -7 0z" fill="rgba(132, 99, 201, 1)"></path><path d="M220.5 577.5L199.5 556.5L115.5 556.5" stroke-width="3.5" stroke="rgba(132, 99, 201, 1)"></path><path d="M217 577.5 a3.5 3.5 0 1 0 7 0 a3.5 3.5 0 1 0 -7 0zM112 556.5 a3.5 3.5 0 1 0 7 0 a3.5 3.5 0 1 0 -7 0z" fill="rgba(132, 99, 201, 1)"></path><path d="M283.5 556.5L304.5 535.5L388.5 535.5L409.5 556.5L430.5 556.5" stroke-width="3.5" stroke="rgba(132, 99, 201, 1)"></path><path d="M280 556.5 a3.5 3.5 0 1 0 7 0 a3.5 3.5 0 1 0 -7 0zM427 556.5 a3.5 3.5 0 1 0 7 0 a3.5 3.5 0 1 0 -7 0z" fill="rgba(132, 99, 201, 1)"></path><path d="M934.5 31.5L871.5 31.5L850.5 52.5" stroke-width="3.5" stroke="rgba(132, 99, 201, 1)"></path><path d="M931 31.5 a3.5 3.5 0 1 0 7 0 a3.5 3.5 0 1 0 -7 0zM847 52.5 a3.5 3.5 0 1 0 7 0 a3.5 3.5 0 1 0 -7 0z" fill="rgba(132, 99, 201, 1)"></path><path d="M703.5 577.5L598.5 577.5L577.5 598.5L556.5 598.5" stroke-width="3.5" stroke="rgba(132, 99, 201, 1)"></path><path d="M700 577.5 a3.5 3.5 0 1 0 7 0 a3.5 3.5 0 1 0 -7 0zM553 598.5 a3.5 3.5 0 1 0 7 0 a3.5 3.5 0 1 0 -7 0z" fill="rgba(132, 99, 201, 1)"></path><path d="M367.5 367.5L262.5 367.5" stroke-width="3.5" stroke="rgba(132, 99, 201, 1)"></path><path d="M364 367.5 a3.5 3.5 0 1 0 7 0 a3.5 3.5 0 1 0 -7 0zM259 367.5 a3.5 3.5 0 1 0 7 0 a3.5 3.5 0 1 0 -7 0z" fill="rgba(132, 99, 201, 1)"></path><path d="M955.5 472.5L976.5 472.5L997.5 451.5" stroke-width="3.5" stroke="rgba(132, 99, 201, 1)"></path><path d="M952 472.5 a3.5 3.5 0 1 0 7 0 a3.5 3.5 0 1 0 -7 0zM994 451.5 a3.5 3.5 0 1 0 7 0 a3.5 3.5 0 1 0 -7 0z" fill="rgba(132, 99, 201, 1)"></path><path d="M1543.5 367.5L1585.5 367.5" stroke-width="3.5" stroke="rgba(132, 99, 201, 1)"></path><path d="M1540 367.5 a3.5 3.5 0 1 0 7 0 a3.5 3.5 0 1 0 -7 0zM1582 367.5 a3.5 3.5 0 1 0 7 0 a3.5 3.5 0 1 0 -7 0z" fill="rgba(132, 99, 201, 1)"></path><path d="M1522.5 451.5L1522.5 409.5" stroke-width="3.5" stroke="rgba(132, 99, 201, 1)"></path><path d="M1519 451.5 a3.5 3.5 0 1 0 7 0 a3.5 3.5 0 1 0 -7 0zM1519 409.5 a3.5 3.5 0 1 0 7 0 a3.5 3.5 0 1 0 -7 0z" fill="rgba(132, 99, 201, 1)"></path><path d="M199.5 283.5L199.5 325.5" stroke-width="3.5" stroke="rgba(132, 99, 201, 1)"></path><path d="M196 283.5 a3.5 3.5 0 1 0 7 0 a3.5 3.5 0 1 0 -7 0zM196 325.5 a3.5 3.5 0 1 0 7 0 a3.5 3.5 0 1 0 -7 0z" fill="rgba(132, 99, 201, 1)"></path><path d="M472.5 73.5L430.5 31.5L409.5 31.5" stroke-width="3.5" stroke="rgba(132, 99, 201, 1)"></path><path d="M469 73.5 a3.5 3.5 0 1 0 7 0 a3.5 3.5 0 1 0 -7 0zM406 31.5 a3.5 3.5 0 1 0 7 0 a3.5 3.5 0 1 0 -7 0z" fill="rgba(132, 99, 201, 1)"></path><path d="M451.5 262.5L409.5 262.5" stroke-width="3.5" stroke="rgba(132, 99, 201, 1)"></path><path d="M448 262.5 a3.5 3.5 0 1 0 7 0 a3.5 3.5 0 1 0 -7 0zM406 262.5 a3.5 3.5 0 1 0 7 0 a3.5 3.5 0 1 0 -7 0z" fill="rgba(132, 99, 201, 1)"></path><path d="M1354.5 577.5L1396.5 577.5L1417.5 556.5L1438.5 556.5" stroke-width="3.5" stroke="rgba(132, 99, 201, 1)"></path><path d="M1351 577.5 a3.5 3.5 0 1 0 7 0 a3.5 3.5 0 1 0 -7 0zM1435 556.5 a3.5 3.5 0 1 0 7 0 a3.5 3.5 0 1 0 -7 0z" fill="rgba(132, 99, 201, 1)"></path><path d="M598.5 514.5L661.5 514.5" stroke-width="3.5" stroke="rgba(132, 99, 201, 1)"></path><path d="M595 514.5 a3.5 3.5 0 1 0 7 0 a3.5 3.5 0 1 0 -7 0zM658 514.5 a3.5 3.5 0 1 0 7 0 a3.5 3.5 0 1 0 -7 0z" fill="rgba(132, 99, 201, 1)"></path><path d="M10.5 157.5L31.5 136.5L52.5 136.5" stroke-width="3.5" stroke="rgba(132, 99, 201, 1)"></path><path d="M7 157.5 a3.5 3.5 0 1 0 7 0 a3.5 3.5 0 1 0 -7 0zM49 136.5 a3.5 3.5 0 1 0 7 0 a3.5 3.5 0 1 0 -7 0z" fill="rgba(132, 99, 201, 1)"></path><path d="M178.5 31.5L157.5 10.5L136.5 10.5" stroke-width="3.5" stroke="rgba(132, 99, 201, 1)"></path><path d="M175 31.5 a3.5 3.5 0 1 0 7 0 a3.5 3.5 0 1 0 -7 0zM133 10.5 a3.5 3.5 0 1 0 7 0 a3.5 3.5 0 1 0 -7 0z" fill="rgba(132, 99, 201, 1)"></path><path d="M787.5 283.5L787.5 262.5L766.5 241.5L724.5 241.5" stroke-width="3.5" stroke="rgba(132, 99, 201, 1)"></path><path d="M784 283.5 a3.5 3.5 0 1 0 7 0 a3.5 3.5 0 1 0 -7 0zM721 241.5 a3.5 3.5 0 1 0 7 0 a3.5 3.5 0 1 0 -7 0z" fill="rgba(132, 99, 201, 1)"></path><path d="M976.5 535.5L976.5 577.5" stroke-width="3.5" stroke="rgba(132, 99, 201, 1)"></path><path d="M973 535.5 a3.5 3.5 0 1 0 7 0 a3.5 3.5 0 1 0 -7 0zM973 577.5 a3.5 3.5 0 1 0 7 0 a3.5 3.5 0 1 0 -7 0z" fill="rgba(132, 99, 201, 1)"></path><path d="M1165.5 388.5L1144.5 367.5L1144.5 346.5L1123.5 325.5" stroke-width="3.5" stroke="rgba(132, 99, 201, 1)"></path><path d="M1162 388.5 a3.5 3.5 0 1 0 7 0 a3.5 3.5 0 1 0 -7 0zM1120 325.5 a3.5 3.5 0 1 0 7 0 a3.5 3.5 0 1 0 -7 0z" fill="rgba(132, 99, 201, 1)"></path><path d="M1606.5 52.5L1585.5 31.5L1585.5 10.5" stroke-width="3.5" stroke="rgba(132, 99, 201, 1)"></path><path d="M1603 52.5 a3.5 3.5 0 1 0 7 0 a3.5 3.5 0 1 0 -7 0zM1582 10.5 a3.5 3.5 0 1 0 7 0 a3.5 3.5 0 1 0 -7 0z" fill="rgba(132, 99, 201, 1)"></path><path d="M1228.5 304.5L1270.5 304.5" stroke-width="3.5" stroke="rgba(132, 99, 201, 1)"></path><path d="M1225 304.5 a3.5 3.5 0 1 0 7 0 a3.5 3.5 0 1 0 -7 0zM1267 304.5 a3.5 3.5 0 1 0 7 0 a3.5 3.5 0 1 0 -7 0z" fill="rgba(132, 99, 201, 1)"></path><path d="M493.5 577.5L493.5 535.5" stroke-width="3.5" stroke="rgba(132, 99, 201, 1)"></path><path d="M490 577.5 a3.5 3.5 0 1 0 7 0 a3.5 3.5 0 1 0 -7 0zM490 535.5 a3.5 3.5 0 1 0 7 0 a3.5 3.5 0 1 0 -7 0z" fill="rgba(132, 99, 201, 1)"></path><path d="M745.5 409.5L766.5 430.5L787.5 430.5L808.5 409.5L808.5 346.5" stroke-width="3.5" stroke="rgba(132, 99, 201, 1)"></path><path d="M742 409.5 a3.5 3.5 0 1 0 7 0 a3.5 3.5 0 1 0 -7 0zM805 346.5 a3.5 3.5 0 1 0 7 0 a3.5 3.5 0 1 0 -7 0z" fill="rgba(132, 99, 201, 1)"></path><path d="M1291.5 472.5L1312.5 472.5L1333.5 451.5L1354.5 451.5" stroke-width="3.5" stroke="rgba(132, 99, 201, 1)"></path><path d="M1288 472.5 a3.5 3.5 0 1 0 7 0 a3.5 3.5 0 1 0 -7 0zM1351 451.5 a3.5 3.5 0 1 0 7 0 a3.5 3.5 0 1 0 -7 0z" fill="rgba(132, 99, 201, 1)"></path><path d="M1354.5 241.5L1312.5 241.5" stroke-width="3.5" stroke="rgba(132, 99, 201, 1)"></path><path d="M1351 241.5 a3.5 3.5 0 1 0 7 0 a3.5 3.5 0 1 0 -7 0zM1309 241.5 a3.5 3.5 0 1 0 7 0 a3.5 3.5 0 1 0 -7 0z" fill="rgba(132, 99, 201, 1)"></path><path d="M1417.5 157.5L1438.5 136.5L1438.5 115.5" stroke-width="3.5" stroke="rgba(132, 99, 201, 1)"></path><path d="M1414 157.5 a3.5 3.5 0 1 0 7 0 a3.5 3.5 0 1 0 -7 0zM1435 115.5 a3.5 3.5 0 1 0 7 0 a3.5 3.5 0 1 0 -7 0z" fill="rgba(132, 99, 201, 1)"></path><path d="M577.5 283.5L535.5 283.5" stroke-width="3.5" stroke="rgba(132, 99, 201, 1)"></path><path d="M574 283.5 a3.5 3.5 0 1 0 7 0 a3.5 3.5 0 1 0 -7 0zM532 283.5 a3.5 3.5 0 1 0 7 0 a3.5 3.5 0 1 0 -7 0z" fill="rgba(132, 99, 201, 1)"></path><path d="M766.5 367.5L766.5 409.5" stroke-width="3.5" stroke="rgba(132, 99, 201, 1)"></path><path d="M763 367.5 a3.5 3.5 0 1 0 7 0 a3.5 3.5 0 1 0 -7 0zM763 409.5 a3.5 3.5 0 1 0 7 0 a3.5 3.5 0 1 0 -7 0z" fill="rgba(132, 99, 201, 1)"></path><path d="M1060.5 556.5L1102.5 514.5" stroke-width="3.5" stroke="rgba(132, 99, 201, 1)"></path><path d="M1057 556.5 a3.5 3.5 0 1 0 7 0 a3.5 3.5 0 1 0 -7 0zM1099 514.5 a3.5 3.5 0 1 0 7 0 a3.5 3.5 0 1 0 -7 0z" fill="rgba(132, 99, 201, 1)"></path><path d="M1312.5 52.5L1396.5 52.5" stroke-width="3.5" stroke="rgba(132, 99, 201, 1)"></path><path d="M1309 52.5 a3.5 3.5 0 1 0 7 0 a3.5 3.5 0 1 0 -7 0zM1393 52.5 a3.5 3.5 0 1 0 7 0 a3.5 3.5 0 1 0 -7 0z" fill="rgba(132, 99, 201, 1)"></path><path d="M1102.5 535.5L1102.5 577.5" stroke-width="3.5" stroke="rgba(132, 99, 201, 1)"></path><path d="M1099 535.5 a3.5 3.5 0 1 0 7 0 a3.5 3.5 0 1 0 -7 0zM1099 577.5 a3.5 3.5 0 1 0 7 0 a3.5 3.5 0 1 0 -7 0z" fill="rgba(132, 99, 201, 1)"></path><path d="M52.5 577.5L94.5 535.5" stroke-width="3.5" stroke="rgba(132, 99, 201, 1)"></path><path d="M49 577.5 a3.5 3.5 0 1 0 7 0 a3.5 3.5 0 1 0 -7 0zM91 535.5 a3.5 3.5 0 1 0 7 0 a3.5 3.5 0 1 0 -7 0z" fill="rgba(132, 99, 201, 1)"></path><path d="M1438.5 514.5L1480.5 514.5L1501.5 535.5L1501.5 556.5" stroke-width="3.5" stroke="rgba(132, 99, 201, 1)"></path><path d="M1435 514.5 a3.5 3.5 0 1 0 7 0 a3.5 3.5 0 1 0 -7 0zM1498 556.5 a3.5 3.5 0 1 0 7 0 a3.5 3.5 0 1 0 -7 0z" fill="rgba(132, 99, 201, 1)"></path><path d="M1522.5 31.5L1543.5 31.5L1564.5 52.5L1564.5 73.5" stroke-width="3.5" stroke="rgba(132, 99, 201, 1)"></path><path d="M1519 31.5 a3.5 3.5 0 1 0 7 0 a3.5 3.5 0 1 0 -7 0zM1561 73.5 a3.5 3.5 0 1 0 7 0 a3.5 3.5 0 1 0 -7 0z" fill="rgba(132, 99, 201, 1)"></path><path d="M346.5 556.5L304.5 556.5" stroke-width="3.5" stroke="rgba(132, 99, 201, 1)"></path><path d="M343 556.5 a3.5 3.5 0 1 0 7 0 a3.5 3.5 0 1 0 -7 0zM301 556.5 a3.5 3.5 0 1 0 7 0 a3.5 3.5 0 1 0 -7 0z" fill="rgba(132, 99, 201, 1)"></path><path d="M1270.5 367.5L1228.5 325.5L1207.5 325.5" stroke-width="3.5" stroke="rgba(132, 99, 201, 1)"></path><path d="M1267 367.5 a3.5 3.5 0 1 0 7 0 a3.5 3.5 0 1 0 -7 0zM1204 325.5 a3.5 3.5 0 1 0 7 0 a3.5 3.5 0 1 0 -7 0z" fill="rgba(132, 99, 201, 1)"></path><path d="M1102.5 10.5L1165.5 10.5" stroke-width="3.5" stroke="rgba(132, 99, 201, 1)"></path><path d="M1099 10.5 a3.5 3.5 0 1 0 7 0 a3.5 3.5 0 1 0 -7 0zM1162 10.5 a3.5 3.5 0 1 0 7 0 a3.5 3.5 0 1 0 -7 0z" fill="rgba(132, 99, 201, 1)"></path><path d="M367.5 178.5L367.5 136.5" stroke-width="3.5" stroke="rgba(132, 99, 201, 1)"></path><path d="M364 178.5 a3.5 3.5 0 1 0 7 0 a3.5 3.5 0 1 0 -7 0zM364 136.5 a3.5 3.5 0 1 0 7 0 a3.5 3.5 0 1 0 -7 0z" fill="rgba(132, 99, 201, 1)"></path><path d="M1228.5 241.5L1228.5 262.5L1207.5 283.5L1186.5 283.5" stroke-width="3.5" stroke="rgba(132, 99, 201, 1)"></path><path d="M1225 241.5 a3.5 3.5 0 1 0 7 0 a3.5 3.5 0 1 0 -7 0zM1183 283.5 a3.5 3.5 0 1 0 7 0 a3.5 3.5 0 1 0 -7 0z" fill="rgba(132, 99, 201, 1)"></path><path d="M451.5 136.5L472.5 136.5L493.5 157.5" stroke-width="3.5" stroke="rgba(132, 99, 201, 1)"></path><path d="M448 136.5 a3.5 3.5 0 1 0 7 0 a3.5 3.5 0 1 0 -7 0zM490 157.5 a3.5 3.5 0 1 0 7 0 a3.5 3.5 0 1 0 -7 0z" fill="rgba(132, 99, 201, 1)"></path><path d="M1207.5 52.5L1228.5 52.5L1249.5 31.5" stroke-width="3.5" stroke="rgba(132, 99, 201, 1)"></path><path d="M1204 52.5 a3.5 3.5 0 1 0 7 0 a3.5 3.5 0 1 0 -7 0zM1246 31.5 a3.5 3.5 0 1 0 7 0 a3.5 3.5 0 1 0 -7 0z" fill="rgba(132, 99, 201, 1)"></path><path d="M619.5 472.5L577.5 472.5" stroke-width="3.5" stroke="rgba(132, 99, 201, 1)"></path><path d="M616 472.5 a3.5 3.5 0 1 0 7 0 a3.5 3.5 0 1 0 -7 0zM574 472.5 a3.5 3.5 0 1 0 7 0 a3.5 3.5 0 1 0 -7 0z" fill="rgba(132, 99, 201, 1)"></path><path d="M829.5 535.5L808.5 514.5L808.5 493.5" stroke-width="3.5" stroke="rgba(132, 99, 201, 1)"></path><path d="M826 535.5 a3.5 3.5 0 1 0 7 0 a3.5 3.5 0 1 0 -7 0zM805 493.5 a3.5 3.5 0 1 0 7 0 a3.5 3.5 0 1 0 -7 0z" fill="rgba(132, 99, 201, 1)"></path><path d="M1165.5 556.5L1144.5 535.5L1123.5 535.5" stroke-width="3.5" stroke="rgba(132, 99, 201, 1)"></path><path d="M1162 556.5 a3.5 3.5 0 1 0 7 0 a3.5 3.5 0 1 0 -7 0zM1120 535.5 a3.5 3.5 0 1 0 7 0 a3.5 3.5 0 1 0 -7 0z" fill="rgba(132, 99, 201, 1)"></path><path d="M1459.5 157.5L1438.5 157.5L1417.5 178.5" stroke-width="3.5" stroke="rgba(132, 99, 201, 1)"></path><path d="M1456 157.5 a3.5 3.5 0 1 0 7 0 a3.5 3.5 0 1 0 -7 0zM1414 178.5 a3.5 3.5 0 1 0 7 0 a3.5 3.5 0 1 0 -7 0z" fill="rgba(132, 99, 201, 1)"></path></g></g><defs><mask id="SvgjsMask1044"><rect width="1600" height="600" fill="#ffffff"></rect></mask></defs></svg>