<svg id="visual" viewBox="0 0 1600 100" width="1600" height="100" xmlns="http://www.w3.org/2000/svg" xmlns:xlink="http://www.w3.org/1999/xlink" version="1.1"><path d="M0 54L33.3 56.7C66.7 59.3 133.3 64.7 200 63.7C266.7 62.7 333.3 55.3 400 44.2C466.7 33 533.3 18 600 20.2C666.7 22.3 733.3 41.7 800 42.2C866.7 42.7 933.3 24.3 1000 14.7C1066.7 5 1133.3 4 1200 19C1266.7 34 1333.3 65 1400 70.7C1466.7 76.3 1533.3 56.7 1566.7 46.8L1600 37L1600 101L1566.7 101C1533.3 101 1466.7 101 1400 101C1333.3 101 1266.7 101 1200 101C1133.3 101 1066.7 101 1000 101C933.3 101 866.7 101 800 101C733.3 101 666.7 101 600 101C533.3 101 466.7 101 400 101C333.3 101 266.7 101 200 101C133.3 101 66.7 101 33.3 101L0 101Z" fill="#6f5fc9"></path><path d="M0 70L33.3 63.7C66.7 57.3 133.3 44.7 200 38C266.7 31.3 333.3 30.7 400 38.2C466.7 45.7 533.3 61.3 600 69C666.7 76.7 733.3 76.3 800 71.2C866.7 66 933.3 56 1000 52.5C1066.7 49 1133.3 52 1200 60.7C1266.7 69.3 1333.3 83.7 1400 89.8C1466.7 96 1533.3 94 1566.7 93L1600 92L1600 101L1566.7 101C1533.3 101 1466.7 101 1400 101C1333.3 101 1266.7 101 1200 101C1133.3 101 1066.7 101 1000 101C933.3 101 866.7 101 800 101C733.3 101 666.7 101 600 101C533.3 101 466.7 101 400 101C333.3 101 266.7 101 200 101C133.3 101 66.7 101 33.3 101L0 101Z" fill="#8167d2"></path><path d="M0 63L33.3 68.7C66.7 74.3 133.3 85.7 200 83.8C266.7 82 333.3 67 400 61.8C466.7 56.7 533.3 61.3 600 68.8C666.7 76.3 733.3 86.7 800 89.7C866.7 92.7 933.3 88.3 1000 83.2C1066.7 78 1133.3 72 1200 73.2C1266.7 74.3 1333.3 82.7 1400 80.8C1466.7 79 1533.3 67 1566.7 61L1600 55L1600 101L1566.7 101C1533.3 101 1466.7 101 1400 101C1333.3 101 1266.7 101 1200 101C1133.3 101 1066.7 101 1000 101C933.3 101 866.7 101 800 101C733.3 101 666.7 101 600 101C533.3 101 466.7 101 400 101C333.3 101 266.7 101 200 101C133.3 101 66.7 101 33.3 101L0 101Z" fill="#9370db"></path></svg>