<svg id="visual" viewBox="0 0 1600 160" width="1600" height="160" xmlns="http://www.w3.org/2000/svg" xmlns:xlink="http://www.w3.org/1999/xlink" version="1.1"><path d="M0 132L44.5 123.7C89 115.3 178 98.7 266.8 83.7C355.7 68.7 444.3 55.3 533.2 58C622 60.7 711 79.3 800 91.2C889 103 978 108 1066.8 114.7C1155.7 121.3 1244.3 129.7 1333.2 115C1422 100.3 1511 62.7 1555.5 43.8L1600 25L1600 161L1555.5 161C1511 161 1422 161 1333.2 161C1244.3 161 1155.7 161 1066.8 161C978 161 889 161 800 161C711 161 622 161 533.2 161C444.3 161 355.7 161 266.8 161C178 161 89 161 44.5 161L0 161Z" fill="#fdfdfe" stroke-linecap="round" stroke-linejoin="miter"></path></svg>